<svg width="800" height="800" viewBox="0 0 800 800" fill="none" xmlns="http://www.w3.org/2000/svg">
<path d="M400 0C253.571 66.1786 159.607 97.25 0 114.286C0 252.839 9.41071 352.429 45.1607 443.768C74.3948 518.248 117.702 586.4 172.714 644.5C261.286 738.536 358.732 788.071 400 800C441.268 788.071 538.714 738.536 627.286 644.5C682.298 586.4 725.605 518.248 754.839 443.768C790.589 352.429 800 252.839 800 114.286C640.393 97.25 546.429 66.1786 400 0Z" fill="#04080C"/>
<path d="M398.233 688.275L186.704 323.342H325.657L399.899 450.979L552.337 186.719H688.954L398.233 688.275Z" fill="#41B883"/>
<path d="M399.898 452.038L245.573 186.719H353.353L399.898 265.953L445.453 186.719H552.948L399.898 452.038Z" fill="#35495E"/>
</svg>
